<svg width="387" height="267" viewBox="0 0 387 267" fill="none" xmlns="http://www.w3.org/2000/svg">
<path d="M126.518 359.244C53.7646 359.244 -5.15232 304.296 -5.15232 236.588C-5.15232 168.88 53.7646 113.933 126.518 113.933C199.271 113.933 258.188 168.88 258.188 236.588C258.188 304.296 199.271 359.244 126.518 359.244Z" stroke="#6246E5"/>
<path d="M140.431 364.105C59.0331 364.105 -6.89131 302.628 -6.8913 226.865C-6.8913 151.102 59.0331 89.6252 140.431 89.6252C221.828 89.6252 287.752 151.102 287.752 226.865C287.752 302.628 221.828 364.105 140.431 364.105Z" stroke="#6246E5"/>
<path d="M151.734 368.967C62.6533 368.967 -9.50001 301.686 -9.50001 218.763C-9.5 135.841 62.6533 68.5596 151.734 68.5596C240.816 68.5596 312.969 135.841 312.969 218.763C312.969 301.686 240.816 368.967 151.734 368.967Z" stroke="#6246E5"/>
<path d="M168.256 372.208C72.4517 372.208 -5.15187 299.848 -5.15186 210.661C-5.15186 121.474 72.4517 49.114 168.256 49.114C264.061 49.114 341.664 121.474 341.664 210.661C341.664 299.848 264.061 372.208 168.256 372.208Z" stroke="#6246E5"/>
<path d="M184.342 375.449C82.0549 375.449 -0.804364 298.192 -0.804359 202.964C-0.804355 107.735 82.0549 30.4785 184.343 30.4785C286.63 30.4785 369.489 107.735 369.489 202.964C369.489 298.192 286.63 375.449 184.342 375.449Z" stroke="#6246E5"/>
<path d="M202.603 379.5C90.2302 379.5 -0.804426 294.625 -0.804421 190C-0.804417 85.3747 90.2303 0.499986 202.603 0.499991C314.975 0.499996 406.01 85.3747 406.01 190C406.01 294.625 314.975 379.5 202.603 379.5Z" stroke="#6246E5"/>
</svg>
