<svg width="120" height="141" viewBox="0 0 120 141" fill="none" xmlns="http://www.w3.org/2000/svg">
<path d="M72.3638 79.9467C71.0066 80.2076 69.6862 80.7346 68.4845 81.4945C65.3536 83.423 63.5413 86.2731 64.437 87.8598C65.3326 89.4465 68.5968 89.1685 71.7277 87.24C72.9458 86.5091 74.0262 85.5576 74.9026 84.4442C75.3091 83.9057 75.3789 83.2187 75.0808 82.6923L73.9172 80.631C73.6212 80.1031 73.0115 79.8349 72.3638 79.9467Z" fill="#D5D6DB"/>
<path d="M64.4837 52.9521C63.4996 53.1415 62.5421 53.5238 61.6707 54.0749C59.4009 55.4729 58.0861 57.5395 58.735 58.6891C59.3839 59.8386 61.7517 59.6369 64.0212 58.2389C64.9044 57.7087 65.6878 57.0184 66.3233 56.211C66.6177 55.8206 66.6682 55.3229 66.4521 54.9412L65.6096 53.4487C65.3952 53.066 64.9535 52.8712 64.4837 52.9521Z" fill="#D5D6DB"/>
<path d="M51.6669 53.6822C51.4475 53.6492 51.2139 53.7003 51.0118 53.8249L45.6813 57.1055C45.2354 57.3791 45.0594 57.9307 45.2886 58.338C45.341 58.4313 45.4124 58.5119 45.499 58.5753L58.7342 68.3218L76.5088 57.3827L51.6669 53.6822Z" fill="#029BC5"/>
<path d="M108.07 53.5799L59.5752 83.6898L30.8539 94.5417L16.1931 97.0231L14.5662 94.0952L95.4041 44.9316C97.8131 43.4597 100.5 42.6029 103.194 42.4481C104.373 42.387 105.539 42.4729 106.663 42.7034C107.66 42.8996 108.606 43.2404 109.474 43.7157C110.442 44.2536 112.28 44.3822 112.88 45.4027C112.882 45.4012 114.307 50.035 108.07 53.5799V53.5799Z" fill="#E1E6E9"/>
<path d="M60.1297 78.8718L39.2713 112.703C39.0111 113.18 39.1696 113.73 39.6251 113.933C39.9046 114.057 40.2459 114.025 40.5318 113.847L45.8669 110.542C46.893 109.906 47.8004 109.083 48.5328 108.124L89.0698 60.1404L60.1297 78.8718Z" fill="#029BC5"/>
<path d="M7.17115 77.8849C6.82047 77.7509 6.40432 77.7988 6.05401 78.0132L1.65558 80.7047C1.05626 81.0711 0.820801 81.8087 1.12948 82.3523C1.18829 82.4557 1.26445 82.5475 1.35554 82.6242L13.7811 93.114L26.7389 85.3471L7.17115 77.8849Z" fill="#029BC5"/>
<path d="M17.8609 94.6587L11.2348 104.077C11.1376 104.213 11.1615 104.388 11.288 104.469C11.3792 104.527 11.5034 104.522 11.604 104.456L15.7262 101.9C15.7582 101.88 15.7871 101.855 15.811 101.826L25.5019 89.9263L17.8609 94.6587Z" fill="#029BC5"/>
<path d="M105.904 42.9018C104.748 42.6692 103.549 42.5844 102.336 42.6489C101.163 44.2975 100.418 46.1706 100.174 48.0813C100.158 48.4663 100.463 48.7551 100.856 48.7264C100.978 48.7173 101.099 48.6778 101.208 48.6114L108.796 43.9272C107.903 43.4448 106.93 43.0996 105.904 42.9018Z" fill="#029BC5"/>
<path d="M89.3322 51.5938L94.2655 48.6284L98.9258 56.669L93.9925 59.6344L89.3322 51.5938Z" fill="#D5D6DB"/>
<path d="M86.1992 54.8395C85.6048 55.1975 85.3713 55.9212 85.6781 56.4556L86.1752 57.3215C86.5018 57.8433 87.2399 57.9616 87.8239 57.5854C88.3796 57.2272 88.5996 56.5454 88.3269 56.025L87.8299 55.1592C87.5233 54.6252 86.7935 54.482 86.1992 54.8395V54.8395Z" fill="#3A556A"/>
<path d="M81.7347 57.6119C81.1403 57.97 80.9069 58.6936 81.2137 59.2281L81.7107 60.0939C82.0373 60.6158 82.7754 60.734 83.3594 60.3579C83.9151 59.9997 84.1351 59.3179 83.8624 58.7975L83.3654 57.9317C83.0586 57.3978 82.3288 57.2546 81.7347 57.6119V57.6119Z" fill="#3A556A"/>
<path d="M77.2688 60.3853C76.6751 60.7439 76.4425 61.4667 76.7491 62.0006L77.2461 62.8664C77.5727 63.3883 78.3108 63.5065 78.8948 63.1304C79.4505 62.7722 79.6705 62.0904 79.3978 61.5701L78.9008 60.7043C78.594 60.1698 77.8634 60.027 77.2688 60.3853V60.3853Z" fill="#3A556A"/>
<path d="M72.8046 63.1576C72.2109 63.5162 71.9783 64.239 72.2848 64.773L72.7819 65.6388C73.1085 66.1607 73.8466 66.279 74.4306 65.9028C74.9863 65.5446 75.2063 64.8628 74.9336 64.3424L74.4365 63.4766C74.1295 62.9423 73.3989 62.7995 72.8046 63.1576V63.1576Z" fill="#3A556A"/>
<path d="M68.3407 65.9302C67.7467 66.2889 67.5139 67.0118 67.8207 67.5459L68.318 68.4119C68.6246 68.9458 69.3548 69.0884 69.9489 68.7306C70.5431 68.3727 70.7762 67.6499 70.4696 67.116L69.9723 66.25C69.6664 65.7157 68.9365 65.5722 68.342 65.9294C68.3415 65.9297 68.3412 65.9299 68.3407 65.9302Z" fill="#3A556A"/>
<path d="M63.8762 68.7026C63.2822 69.0613 63.0495 69.7843 63.3562 70.3184L63.8535 71.1844C64.1601 71.7182 64.8903 71.8609 65.4844 71.5031C66.0786 71.1452 66.3117 70.4223 66.0051 69.8885L65.5078 69.0225C65.202 68.4881 64.472 68.3447 63.8775 68.7019C63.877 68.7022 63.8765 68.7025 63.8762 68.7026Z" fill="#3A556A"/>
<path d="M59.4116 71.4752C58.8176 71.8338 58.5849 72.5568 58.8916 73.0909L59.3889 73.9568C59.6962 74.4902 60.4268 74.6318 61.0203 74.2734C61.6128 73.9157 61.8454 73.1943 61.5402 72.6611L61.0429 71.7951C60.7364 71.2609 60.0063 71.1176 59.4116 71.4752Z" fill="#3A556A"/>
<path d="M54.947 74.2477C54.353 74.6064 54.1203 75.3293 54.427 75.8634L54.9243 76.7294C55.2316 77.2628 55.9622 77.4044 56.5557 77.046C57.1482 76.6882 57.3808 75.9668 57.0756 75.4337L56.5783 74.5676C56.2718 74.0334 55.5417 73.8901 54.947 74.2477Z" fill="#3A556A"/>
<path d="M50.4828 77.0201C49.8888 77.3788 49.656 78.1017 49.9627 78.6358L50.4601 79.5018C50.7674 80.0352 51.4979 80.1767 52.0914 79.8183C52.6839 79.4606 52.9166 78.7392 52.6114 78.206L52.1141 77.3401C51.8074 76.806 51.0772 76.6627 50.4828 77.0201Z" fill="#3A556A"/>
<path d="M46.017 79.7933C45.4228 80.1512 45.1897 80.8741 45.4963 81.4079L45.4969 81.4091L45.9942 82.2751C46.3016 82.8085 47.0321 82.95 47.6256 82.5917C48.2181 82.2339 48.4507 81.5125 48.1456 80.9793L47.6482 80.1133C47.3418 79.5791 46.6116 79.4358 46.017 79.7933Z" fill="#3A556A"/>
<path d="M41.5537 82.565C40.9596 82.9229 40.7264 83.6457 41.033 84.1796L41.0337 84.1807L41.531 85.0467C41.8383 85.5801 42.5689 85.7216 43.1624 85.3633C43.7549 85.0055 43.9875 84.2841 43.6824 83.751L43.185 82.885C42.8783 82.3509 42.1481 82.2076 41.5537 82.565Z" fill="#3A556A"/>
</svg>
