<svg width="161" height="140" viewBox="0 0 161 140" fill="none" xmlns="http://www.w3.org/2000/svg">
<path d="M92.7025 78.1593C91.283 78.5009 89.8832 79.0967 88.5903 79.9092C85.2251 81.9767 83.1592 84.8456 83.9764 86.3164C84.7935 87.7873 88.184 87.3027 91.5492 85.2352C92.8571 84.4496 94.0378 83.4603 95.0187 82.3284C95.4753 81.7821 95.5942 81.1149 95.3221 80.627L94.2605 78.7163C93.9907 78.2267 93.3792 78.0085 92.7025 78.1593Z" fill="#D5D6DB"/>
<path d="M86.4437 52.7159C85.4143 52.9638 84.3992 53.396 83.4616 53.9853C81.0221 55.4841 79.5233 57.5643 80.1153 58.63C80.7074 59.6956 83.1668 59.344 85.6061 57.8453C86.5544 57.2754 87.4105 56.5577 88.122 55.7369C88.4526 55.3409 88.5386 54.8575 88.3414 54.5038L87.5728 53.1202C87.3774 52.7654 86.9344 52.6067 86.4437 52.7159Z" fill="#D5D6DB"/>
<path d="M73.1577 54.2727C72.9333 54.2555 72.6886 54.3202 72.4713 54.4538L66.742 57.9707C66.2628 58.264 66.0435 58.8077 66.2524 59.1852C66.3002 59.2717 66.3685 59.3448 66.4536 59.4001L79.4602 67.9222L98.5646 56.1952L73.1577 54.2727Z" fill="#029BC5"/>
<path d="M131.382 50.346L79.2746 82.6643L48.8804 95.0687L33.5701 98.4498L32.0853 95.734L118.877 42.853C121.464 41.2707 124.297 40.263 127.09 39.9324C128.312 39.794 129.51 39.7985 130.656 39.9453C131.673 40.0675 132.628 40.3327 133.492 40.7329C134.456 41.1868 136.347 41.1872 136.898 42.1316C136.9 42.13 138.062 46.5055 131.382 50.346V50.346Z" fill="#E1E6E9"/>
<path d="M80.1404 77.9422L56.3123 111.979C56.0113 112.456 56.138 112.977 56.5948 113.142C56.8751 113.243 57.2298 113.189 57.5371 112.999L63.271 109.453C64.3738 108.77 65.3665 107.916 66.1878 106.942L111.298 57.9353L80.1404 77.9422Z" fill="#029BC5"/>
<path d="M25.6087 80.6547C25.2557 80.5488 24.8226 80.6224 24.4461 80.8522L19.7191 83.7371C19.075 84.1299 18.7814 84.8564 19.063 85.3601C19.1167 85.4558 19.1891 85.5393 19.2779 85.6072L31.3944 94.8983L45.3091 86.5557L25.6087 80.6547Z" fill="#029BC5"/>
<path d="M35.4812 96.0839L28.0022 105.615C27.8927 105.752 27.9055 105.92 28.0308 105.99C28.1211 106.04 28.2497 106.026 28.3581 105.956L32.7882 103.214C32.8226 103.193 32.8542 103.166 32.8809 103.137L43.6927 91.0066L35.4812 96.0839Z" fill="#029BC5"/>
<path d="M129.85 40.1799C128.672 40.0323 127.439 40.0302 126.181 40.173C124.858 41.8412 123.961 43.6975 123.58 45.5567C123.537 45.9292 123.832 46.1875 124.24 46.1336C124.367 46.1167 124.495 46.0706 124.612 45.9993L132.767 40.9767C131.878 40.5708 130.896 40.3025 129.85 40.1799Z" fill="#029BC5"/>
<path d="M112.151 49.6728L117.45 46.4937L121.709 53.9304L116.41 57.1096L112.151 49.6728Z" fill="#D5D6DB"/>
<path d="M108.702 53.0269C108.063 53.4104 107.773 54.1227 108.053 54.6178L108.507 55.4199C108.809 55.9016 109.563 55.9678 110.192 55.5676C110.791 55.1865 111.064 54.5153 110.818 54.0316L110.364 53.2295C110.084 52.7348 109.34 52.644 108.702 53.0269V53.0269Z" fill="#3A556A"/>
<path d="M103.907 56.0047C103.268 56.3881 102.978 57.1005 103.258 57.5956L103.712 58.3977C104.014 58.8794 104.768 58.9456 105.397 58.5454C105.996 58.1643 106.269 57.4931 106.023 57.0094L105.569 56.2073C105.289 55.7128 104.545 55.6219 103.907 56.0047V56.0047Z" fill="#3A556A"/>
<path d="M99.1102 58.9833C98.4725 59.3672 98.1829 60.0787 98.463 60.5734L98.9173 61.3754C99.219 61.8571 99.9732 61.9233 100.602 61.5231C101.2 61.1421 101.474 60.4709 101.228 59.9872L100.774 59.1851C100.494 58.69 99.7488 58.5997 99.1102 58.9833V58.9833Z" fill="#3A556A"/>
<path d="M94.3153 61.961C93.6776 62.3449 93.388 63.0564 93.6681 63.5511L94.1223 64.3532C94.424 64.8349 95.1783 64.9011 95.8071 64.5009C96.4055 64.1198 96.6793 63.4486 96.4332 62.9649L95.979 62.1628C95.6983 61.6678 94.9536 61.5775 94.3153 61.961V61.961Z" fill="#3A556A"/>
<path d="M89.5206 64.9388C88.8826 65.3228 88.5928 66.0344 88.8731 66.5292L89.3276 67.3314C89.6078 67.8259 90.3522 67.9162 90.9903 67.533C91.6284 67.1497 91.9185 66.4382 91.6383 65.9436L91.1838 65.1414C90.9045 64.6464 90.1604 64.5554 89.5219 64.938C89.5214 64.9383 89.5211 64.9385 89.5206 64.9388Z" fill="#3A556A"/>
<path d="M84.7257 67.9165C84.0877 68.3005 83.7979 69.0121 84.0782 69.5069L84.5327 70.3091C84.8129 70.8037 85.5573 70.8939 86.1953 70.5107C86.8334 70.1275 87.1236 69.4159 86.8434 68.9214L86.3889 68.1191C86.1096 67.6241 85.3655 67.5331 84.727 67.9157C84.7265 67.916 84.7259 67.9164 84.7257 67.9165Z" fill="#3A556A"/>
<path d="M79.9305 70.8944C79.2925 71.2784 79.0027 71.99 79.283 72.4847L79.7375 73.2869C80.0185 73.781 80.7633 73.8701 81.4008 73.4864C82.0371 73.1034 82.3267 72.3934 82.0479 71.8994L81.5934 71.0972C81.3134 70.6023 80.5691 70.5114 79.9305 70.8944Z" fill="#3A556A"/>
<path d="M75.1353 73.8722C74.4973 74.2562 74.2076 74.9678 74.4879 75.4626L74.9423 76.2648C75.2233 76.7589 75.9681 76.848 76.6056 76.4643C77.242 76.0813 77.5315 75.3712 77.2527 74.8772L76.7983 74.075C76.5183 73.58 75.7739 73.4892 75.1353 73.8722Z" fill="#3A556A"/>
<path d="M70.3404 76.8499C69.7024 77.2339 69.4127 77.9455 69.6929 78.4402L70.1474 79.2425C70.4284 79.7365 71.1732 79.8256 71.8107 79.442C72.4471 79.0589 72.7366 78.3489 72.4578 77.8549L72.0033 77.0527C71.7231 76.5579 70.9787 76.4671 70.3404 76.8499Z" fill="#3A556A"/>
<path d="M65.544 79.8285C64.9059 80.2117 64.6158 80.9233 64.896 81.4178L64.8966 81.4189L65.351 82.2211C65.632 82.7152 66.3768 82.8043 67.0143 82.4206C67.6507 82.0376 67.9402 81.3275 67.6614 80.8335L67.207 80.0313C66.9269 79.5363 66.1826 79.4455 65.544 79.8285Z" fill="#3A556A"/>
<path d="M60.7502 82.8054C60.1121 83.1886 59.822 83.9002 60.1021 84.3947L60.1027 84.3958L60.5572 85.198C60.8382 85.692 61.5831 85.7812 62.2205 85.3975C62.8569 85.0145 63.1464 84.3044 62.8677 83.8104L62.4132 83.0082C62.1329 82.5135 61.3885 82.4226 60.7502 82.8054Z" fill="#3A556A"/>
</svg>
