<svg width="156" height="141" viewBox="0 0 156 141" fill="none" xmlns="http://www.w3.org/2000/svg">
<path d="M90.1489 79.8525C88.7917 80.1134 87.4713 80.6404 86.2696 81.4003C83.1387 83.3289 81.3265 86.179 82.2221 87.7657C83.1178 89.3523 86.382 89.0744 89.5129 87.1458C90.731 86.415 91.8114 85.4634 92.6877 84.3501C93.0943 83.8115 93.1641 83.1245 92.8659 82.5981L91.7024 80.5369C91.4063 80.0089 90.7967 79.7407 90.1489 79.8525Z" fill="#D5D6DB"/>
<path d="M82.2688 52.858C81.2847 53.0474 80.3271 53.4297 79.4557 53.9808C77.186 55.3788 75.8711 57.4454 76.5201 58.595C77.169 59.7445 79.5368 59.5427 81.8063 58.1448C82.6894 57.6146 83.4728 56.9243 84.1084 56.1169C84.4028 55.7265 84.4532 55.2288 84.2372 54.8471L83.3946 53.3546C83.1803 52.9719 82.7385 52.7771 82.2688 52.858Z" fill="#D5D6DB"/>
<path d="M69.4519 53.588C69.2325 53.5551 68.999 53.6061 68.7969 53.7308L63.4663 57.0114C63.0205 57.2849 62.8444 57.8366 63.0736 58.2438C63.126 58.3371 63.1975 58.4178 63.284 58.4811L76.5192 68.2277L94.2938 57.2885L69.4519 53.588Z" fill="#029BC5"/>
<path d="M125.855 53.4858L77.3604 83.5957L48.6391 94.4475L33.9782 96.9289L32.3513 94.0011L113.189 44.8374C115.598 43.3656 118.285 42.5088 120.979 42.354C122.158 42.2928 123.324 42.3788 124.448 42.6093C125.445 42.8055 126.391 43.1462 127.259 43.6215C128.227 44.1594 130.066 44.2881 130.665 45.3085C130.667 45.307 132.092 49.9408 125.855 53.4858V53.4858Z" fill="#E1E6E9"/>
<path d="M77.9148 78.7777L57.0565 112.609C56.7962 113.086 56.9548 113.636 57.4103 113.839C57.6898 113.963 58.031 113.931 58.317 113.753L63.6521 110.448C64.6782 109.811 65.5855 108.989 66.318 108.03L106.855 60.0462L77.9148 78.7777Z" fill="#029BC5"/>
<path d="M24.9564 77.7907C24.6057 77.6568 24.1896 77.7047 23.8393 77.919L19.4409 80.6106C18.8415 80.977 18.6061 81.7146 18.9148 82.2582C18.9736 82.3616 19.0497 82.4534 19.1408 82.5301L31.5664 93.0199L44.5241 85.2529L24.9564 77.7907Z" fill="#029BC5"/>
<path d="M35.6461 94.5645L29.0199 103.983C28.9228 104.119 28.9466 104.294 29.0732 104.375C29.1644 104.433 29.2886 104.428 29.3892 104.361L33.5113 101.806C33.5433 101.786 33.5723 101.761 33.5962 101.732L43.2871 89.8322L35.6461 94.5645Z" fill="#029BC5"/>
<path d="M123.689 42.8077C122.533 42.5751 121.334 42.4903 120.121 42.5548C118.948 44.2035 118.203 46.0765 117.959 47.9872C117.943 48.3722 118.248 48.661 118.641 48.6323C118.763 48.6232 118.884 48.5837 118.993 48.5173L126.581 43.8331C125.688 43.3507 124.715 43.0055 123.689 42.8077Z" fill="#029BC5"/>
<path d="M107.117 51.4996L112.05 48.5343L116.711 56.5749L111.778 59.5403L107.117 51.4996Z" fill="#D5D6DB"/>
<path d="M103.984 54.7453C103.39 55.1034 103.156 55.827 103.463 56.3615L103.96 57.2273C104.287 57.7492 105.025 57.8674 105.609 57.4913C106.165 57.1331 106.385 56.4513 106.112 55.9309L105.615 55.0651C105.308 54.5311 104.579 54.3878 103.984 54.7453V54.7453Z" fill="#3A556A"/>
<path d="M99.5198 57.5178C98.9255 57.8759 98.692 58.5995 98.9988 59.134L99.4959 59.9998C99.8225 60.5217 100.561 60.6399 101.145 60.2638C101.7 59.9056 101.92 59.2237 101.648 58.7034L101.151 57.8375C100.844 57.3037 100.114 57.1605 99.5198 57.5178V57.5178Z" fill="#3A556A"/>
<path d="M95.054 60.2911C94.4603 60.6497 94.2277 61.3725 94.5342 61.9065L95.0313 62.7723C95.3579 63.2942 96.096 63.4124 96.6799 63.0363C97.2357 62.6781 97.4557 61.9963 97.183 61.4759L96.6859 60.6101C96.3791 60.0757 95.6486 59.9329 95.054 60.2911V60.2911Z" fill="#3A556A"/>
<path d="M90.5896 63.0635C89.9959 63.4221 89.7633 64.1449 90.0699 64.6789L90.5669 65.5447C90.8935 66.0666 91.6316 66.1848 92.2156 65.8087C92.7713 65.4505 92.9913 64.7687 92.7186 64.2483L92.2216 63.3825C91.9145 62.8482 91.184 62.7054 90.5896 63.0635V63.0635Z" fill="#3A556A"/>
<path d="M86.1256 65.836C85.5316 66.1947 85.2989 66.9177 85.6056 67.4517L86.1029 68.3177C86.4095 68.8516 87.1397 68.9943 87.7338 68.6364C88.328 68.2786 88.5611 67.5557 88.2545 67.0218L87.7572 66.1558C87.4514 65.6215 86.7214 65.4781 86.1269 65.8353C86.1264 65.8356 86.1261 65.8357 86.1256 65.836Z" fill="#3A556A"/>
<path d="M81.6613 68.6085C81.0672 68.9672 80.8345 69.6901 81.1412 70.2242L81.6385 71.0902C81.9451 71.6241 82.6753 71.7667 83.2695 71.4089C83.8636 71.051 84.0967 70.3282 83.7902 69.7943L83.2928 68.9283C82.987 68.394 82.2571 68.2505 81.6625 68.6077C81.662 68.608 81.6615 68.6083 81.6613 68.6085Z" fill="#3A556A"/>
<path d="M77.1966 71.381C76.6026 71.7397 76.3699 72.4626 76.6766 72.9967L77.1739 73.8627C77.4813 74.3961 78.2118 74.5376 78.8053 74.1793C79.3978 73.8215 79.6304 73.1001 79.3252 72.567L78.8279 71.701C78.5215 71.1667 77.7913 71.0235 77.1966 71.381Z" fill="#3A556A"/>
<path d="M72.732 74.1535C72.138 74.5122 71.9053 75.2352 72.212 75.7693L72.7093 76.6353C73.0167 77.1687 73.7472 77.3102 74.3407 76.9518C74.9332 76.5941 75.1658 75.8727 74.8606 75.3395L74.3633 74.4735C74.0569 73.9392 73.3267 73.796 72.732 74.1535Z" fill="#3A556A"/>
<path d="M68.2677 76.926C67.6737 77.2846 67.4409 78.0076 67.7476 78.5416L68.245 79.4076C68.5523 79.941 69.2828 80.0826 69.8763 79.7242C70.4688 79.3664 70.7015 78.6451 70.3963 78.1119L69.899 77.2459C69.5923 76.7118 68.8621 76.5686 68.2677 76.926Z" fill="#3A556A"/>
<path d="M63.8019 79.6992C63.2077 80.057 62.9746 80.7799 63.2812 81.3138L63.2818 81.3149L63.7791 82.1809C64.0865 82.7143 64.817 82.8559 65.4105 82.4975C66.003 82.1397 66.2356 81.4183 65.9305 80.8851L65.4332 80.0191C65.1267 79.4849 64.3965 79.3416 63.8019 79.6992Z" fill="#3A556A"/>
<path d="M59.3387 82.4709C58.7446 82.8287 58.5115 83.5516 58.8181 84.0854L58.8187 84.0866L59.316 84.9525C59.6234 85.4859 60.3539 85.6275 60.9474 85.2691C61.5399 84.9114 61.7726 84.19 61.4674 83.6568L60.9701 82.7908C60.6634 82.2568 59.9332 82.1135 59.3387 82.4709Z" fill="#3A556A"/>
</svg>
