<svg width="19" height="15" viewBox="0 0 19 15" fill="none" xmlns="http://www.w3.org/2000/svg">
<path d="M18.4389 2.43306C17.7762 2.69663 17.07 2.87133 16.3337 2.95616C17.0911 2.54616 17.6692 1.90188 17.941 1.12531C17.2348 1.50703 16.4551 1.77666 15.6241 1.92713C14.9536 1.27981 13.9978 0.878906 12.9552 0.878906C10.9324 0.878906 9.30392 2.36742 9.30392 4.19221C9.30392 4.45477 9.32842 4.70723 9.38857 4.94757C6.351 4.81326 3.66319 3.4934 1.85757 1.48279C1.54234 1.97863 1.35744 2.54616 1.35744 3.15712C1.35744 4.3043 2.00906 5.32121 2.98037 5.90995C2.39335 5.89986 1.81747 5.74535 1.32959 5.50198C1.32959 5.51208 1.32959 5.5252 1.32959 5.53833C1.32959 7.14802 2.59608 8.48506 4.25689 8.79306C3.95948 8.86678 3.63534 8.90212 3.29894 8.90212C3.06503 8.90212 2.82888 8.89001 2.60722 8.84557C3.08062 10.1574 4.42397 11.1218 6.02129 11.1531C4.77819 12.0347 3.19981 12.5658 1.4911 12.5658C1.19147 12.5658 0.904083 12.5537 0.616699 12.5204C2.23518 13.4666 4.1533 14.0069 6.22179 14.0069C12.9452 14.0069 16.6211 8.95767 16.6211 4.581C16.6211 4.43457 16.6155 4.29319 16.6077 4.15282C17.3328 3.68628 17.9421 3.10359 18.4389 2.43306Z" fill="#080809"/>
</svg>
